<?xml version="1.0" encoding="UTF-8" standalone="no"?>
<!-- Created with Inkscape (http://www.inkscape.org/) -->

<svg
   width="171.00264mm"
   height="167.68352mm"
   viewBox="0 0 171.00264 167.68352"
   version="1.1"
   id="svg5"
   xml:space="preserve"
   inkscape:version="1.2.2 (1:1.2.2+202305151915+b0a8486541)"
   sodipodi:docname="drawing.svg"
   xmlns:inkscape="http://www.inkscape.org/namespaces/inkscape"
   xmlns:sodipodi="http://sodipodi.sourceforge.net/DTD/sodipodi-0.dtd"
   xmlns:xlink="http://www.w3.org/1999/xlink"
   xmlns="http://www.w3.org/2000/svg"
   xmlns:svg="http://www.w3.org/2000/svg"><sodipodi:namedview
     id="namedview7"
     pagecolor="#ffffff"
     bordercolor="#666666"
     borderopacity="1.0"
     inkscape:showpageshadow="2"
     inkscape:pageopacity="0.0"
     inkscape:pagecheckerboard="0"
     inkscape:deskcolor="#d1d1d1"
     inkscape:document-units="mm"
     showgrid="false"
     inkscape:zoom="0.33057327"
     inkscape:cx="-542.99612"
     inkscape:cy="-75.6262"
     inkscape:window-width="3440"
     inkscape:window-height="1391"
     inkscape:window-x="0"
     inkscape:window-y="0"
     inkscape:window-maximized="1"
     inkscape:current-layer="layer1" /><defs
     id="defs2"><linearGradient
       inkscape:collect="always"
       id="linearGradient130993"><stop
         style="stop-color:#1e9ae9;stop-opacity:1;"
         offset="0"
         id="stop130989" /><stop
         style="stop-color:#026ac4;stop-opacity:1;"
         offset="1"
         id="stop130991" /></linearGradient><linearGradient
       inkscape:collect="always"
       id="linearGradient100904"><stop
         style="stop-color:#f8f7fa;stop-opacity:1;"
         offset="0"
         id="stop100900" /><stop
         style="stop-color:#cdcdd1;stop-opacity:1;"
         offset="1"
         id="stop100902" /></linearGradient><linearGradient
       inkscape:collect="always"
       id="linearGradient92792"><stop
         style="stop-color:#72797e;stop-opacity:1;"
         offset="0"
         id="stop92788" /><stop
         style="stop-color:#3d4347;stop-opacity:1;"
         offset="1"
         id="stop92790" /></linearGradient><linearGradient
       inkscape:collect="always"
       id="linearGradient92784"><stop
         style="stop-color:#52575c;stop-opacity:1;"
         offset="0"
         id="stop92780" /><stop
         style="stop-color:#52575c;stop-opacity:0;"
         offset="1"
         id="stop92782" /></linearGradient><inkscape:path-effect
       effect="fillet_chamfer"
       id="path-effect56722"
       is_visible="true"
       lpeversion="1"
       nodesatellites_param="F,0,0,1,0,0,0,1 @ F,0,0,1,0,0,0,1 @ F,0,0,1,0,0,0,1 @ F,0,0,1,0,0,0,1 @ F,0,0,1,0,0,0,1 @ F,0,0,1,0,0,0,1 @ F,0,0,1,0,8.1500108,0,1 @ F,0,0,1,0,0,0,1 @ F,0,0,1,0,0,0,1 @ F,0,0,1,0,0,0,1 @ F,0,0,1,0,0,0,1 @ F,0,0,1,0,0,0,1"
       unit="px"
       method="auto"
       mode="F"
       radius="0"
       chamfer_steps="1"
       flexible="false"
       use_knot_distance="true"
       apply_no_radius="true"
       apply_with_radius="true"
       only_selected="false"
       hide_knots="false" /><linearGradient
       inkscape:collect="always"
       xlink:href="#linearGradient92784"
       id="linearGradient92786"
       x1="56.964531"
       y1="108.39334"
       x2="87.819679"
       y2="108.39334"
       gradientUnits="userSpaceOnUse" /><linearGradient
       inkscape:collect="always"
       xlink:href="#linearGradient92792"
       id="linearGradient92794"
       x1="92.053444"
       y1="-56.792152"
       x2="125.55431"
       y2="-89.078896"
       gradientUnits="userSpaceOnUse" /><linearGradient
       inkscape:collect="always"
       xlink:href="#linearGradient92792"
       id="linearGradient96433"
       gradientUnits="userSpaceOnUse"
       x1="92.053444"
       y1="-56.792152"
       x2="125.55431"
       y2="-89.078896" /><linearGradient
       inkscape:collect="always"
       xlink:href="#linearGradient92784"
       id="linearGradient96435"
       gradientUnits="userSpaceOnUse"
       x1="56.964531"
       y1="108.39334"
       x2="87.819679"
       y2="108.39334" /><linearGradient
       inkscape:collect="always"
       xlink:href="#linearGradient92792"
       id="linearGradient96470"
       gradientUnits="userSpaceOnUse"
       x1="92.053444"
       y1="-56.792152"
       x2="125.55431"
       y2="-89.078896" /><linearGradient
       inkscape:collect="always"
       xlink:href="#linearGradient92784"
       id="linearGradient96472"
       gradientUnits="userSpaceOnUse"
       x1="56.964531"
       y1="108.39334"
       x2="87.819679"
       y2="108.39334" /><linearGradient
       inkscape:collect="always"
       xlink:href="#linearGradient100904"
       id="linearGradient100906"
       x1="353.23383"
       y1="161.38046"
       x2="429.22534"
       y2="303.96432"
       gradientUnits="userSpaceOnUse" /><filter
       style="color-interpolation-filters:sRGB"
       inkscape:label="Drop Shadow"
       id="filter114582"
       x="-0.079059924"
       y="-0.12774996"
       width="1.1581198"
       height="1.2554999"><feFlood
         flood-opacity="0.501961"
         flood-color="rgb(0,0,0)"
         result="flood"
         id="feFlood114572" /><feComposite
         in="flood"
         in2="SourceGraphic"
         operator="in"
         result="composite1"
         id="feComposite114574" /><feGaussianBlur
         in="composite1"
         stdDeviation="10.2884"
         result="blur"
         id="feGaussianBlur114576" /><feOffset
         dx="0"
         dy="0"
         result="offset"
         id="feOffset114578" /><feComposite
         in="SourceGraphic"
         in2="offset"
         operator="over"
         result="composite2"
         id="feComposite114580" /></filter><filter
       style="color-interpolation-filters:sRGB"
       inkscape:label="Drop Shadow"
       id="filter115186"
       x="-0.11468455"
       y="-0.065818293"
       width="1.2293691"
       height="1.1316366"><feFlood
         flood-opacity="0.18685124780210999"
         flood-color="rgb(0,0,0)"
         result="flood"
         id="feFlood115176" /><feComposite
         in="flood"
         in2="SourceGraphic"
         operator="in"
         result="composite1"
         id="feComposite115178" /><feGaussianBlur
         stdDeviation="9.8296092555428132"
         result="blur"
         id="feGaussianBlur115180" /><feOffset
         dx="0"
         dy="0"
         result="offset"
         id="feOffset115182" /><feComposite
         in="SourceGraphic"
         in2="offset"
         operator="over"
         result="composite2"
         id="feComposite115184" /></filter><linearGradient
       inkscape:collect="always"
       xlink:href="#linearGradient130993"
       id="linearGradient130995"
       x1="173.38853"
       y1="91.877495"
       x2="172.80173"
       y2="443.70715"
       gradientUnits="userSpaceOnUse" /></defs><g
     inkscape:label="Layer 1"
     inkscape:groupmode="layer"
     id="layer1"
     transform="translate(-17.677883,-36.509758)"><rect
       style="fill:url(#linearGradient130995);fill-opacity:1;stroke:none;stroke-width:5.46187;stroke-linecap:round;stroke-linejoin:round;paint-order:markers stroke fill;filter:url(#filter115186)"
       id="rect463"
       width="205.70392"
       height="358.42712"
       x="70.100006"
       y="90.619247"
       ry="15.575157"
       transform="matrix(0.41341146,0,0,0.41341146,-1.549448,8.7995376)" /><rect
       style="fill:#1280dd;fill-opacity:1;stroke:none;stroke-width:2.2315;stroke-linecap:round;stroke-linejoin:round;paint-order:markers stroke fill"
       id="rect165672"
       width="84.992424"
       height="110.21712"
       x="27.432396"
       y="65.329041" /><g
       id="g53196"
       transform="matrix(0.41341146,0,0,0.41341146,-3.7296414,4.3963124)"
       style="fill:#0e3e8f;fill-opacity:1"><circle
         style="fill:#0e3e8f;fill-opacity:1;stroke:none;stroke-width:1.48167;stroke-linecap:round;stroke-linejoin:round;paint-order:markers stroke fill"
         id="path50149"
         cx="-145.6339"
         cy="-125.14191"
         r="8.5411043"
         transform="scale(-1)" /><rect
         style="fill:#0e3e8f;fill-opacity:1;stroke:none;stroke-width:5.99062;stroke-linecap:round;stroke-linejoin:round;paint-order:markers stroke fill"
         id="rect53170"
         width="57.139065"
         height="16.609823"
         x="160.91725"
         y="116.83699"
         ry="8.3049116" /><rect
         style="fill:#0e3e8f;fill-opacity:1;stroke:none;stroke-width:5.99062;stroke-linecap:round;stroke-linejoin:round;paint-order:markers stroke fill"
         id="rect53170-2"
         width="57.139065"
         height="16.609823"
         x="149.27664"
         y="426.90613"
         ry="8.3049116" /></g><path
       id="rect19327"
       style="fill:url(#linearGradient100906);fill-opacity:1;stroke-width:5.46187;stroke-linecap:round;stroke-linejoin:round;paint-order:markers stroke fill;filter:url(#filter114582)"
       d="m 419.87953,159.7742 c 8.62864,0 15.57516,6.94652 15.57516,15.57516 v 116.02583 c 0,8.62864 -6.94652,15.57516 -15.57516,15.57516 H 208.00059 l -42.7228,45.09614 c -2.05556,2.13067 -5.6596,0.67596 -5.66017,-2.28463 l -0.005,-42.81151 h -20.90484 c -8.62864,0 -15.57516,-6.94652 -15.57516,-15.57516 V 175.34936 c 0,-8.62864 6.94652,-15.57516 15.57516,-15.57516 z"
       sodipodi:nodetypes="cssscccsssscc"
       transform="matrix(0.41341146,0,0,0.41341146,-1.549448,8.7995376)" /><g
       id="g57014"
       transform="translate(24.45443,23.52202)"
       style="fill:#52575c;fill-opacity:1"><g
         id="g56938-2-3-0"
         transform="translate(-18.682289,-26.610899)"
         style="fill:url(#linearGradient92786);fill-opacity:1"><path
           id="rect56814-6-7-6-6"
           style="fill:url(#linearGradient92794);fill-opacity:1;stroke-width:2.64222;stroke-linecap:round;stroke-linejoin:round;paint-order:markers stroke fill"
           d="m 91.232374,-72.391845 c 0,2.324257 1.871351,4.195092 4.195609,4.195092 h 5.698877 l -2.849438,4.935616 c -1.162129,2.012866 -0.47756,4.568787 1.535306,5.730916 2.012862,1.162129 4.569302,0.477043 5.731432,-1.535823 l 2.84944,-4.935099 2.84944,4.935099 c 1.16213,2.012866 3.71805,2.697952 5.73091,1.535823 2.01287,-1.162129 2.69744,-3.71805 1.53531,-5.730916 l -2.84944,-4.935616 h 5.69888 c 2.32426,0 4.19561,-1.870835 4.19561,-4.195092 0,-2.324258 -1.87135,-4.19561 -4.19561,-4.19561 h -5.69888 l 2.84944,-4.935099 c 1.16213,-2.012866 0.47756,-4.569304 -1.53531,-5.731433 -2.01286,-1.162129 -4.56878,-0.477043 -5.73091,1.535824 l -2.84944,4.935616 -2.84944,-4.935616 c -1.16213,-2.012867 -3.71857,-2.697953 -5.731432,-1.535824 -2.012866,1.162129 -2.697435,3.718567 -1.535306,5.731433 l 2.849438,4.935099 h -5.698877 c -2.324258,0 -4.195609,1.871352 -4.195609,4.19561 z"
           transform="rotate(90)" /></g><g
         id="g56938-2-3-0-7"
         transform="translate(18.224068,-26.610899)"
         style="fill:url(#linearGradient96435);fill-opacity:1"><path
           id="rect56814-6-7-6-6-9"
           style="fill:url(#linearGradient96433);fill-opacity:1;stroke-width:2.64222;stroke-linecap:round;stroke-linejoin:round;paint-order:markers stroke fill"
           d="m 91.232374,-72.391845 c 0,2.324257 1.871351,4.195092 4.195609,4.195092 h 5.698877 l -2.849438,4.935616 c -1.162129,2.012866 -0.47756,4.568787 1.535306,5.730916 2.012862,1.162129 4.569302,0.477043 5.731432,-1.535823 l 2.84944,-4.935099 2.84944,4.935099 c 1.16213,2.012866 3.71805,2.697952 5.73091,1.535823 2.01287,-1.162129 2.69744,-3.71805 1.53531,-5.730916 l -2.84944,-4.935616 h 5.69888 c 2.32426,0 4.19561,-1.870835 4.19561,-4.195092 0,-2.324258 -1.87135,-4.19561 -4.19561,-4.19561 h -5.69888 l 2.84944,-4.935099 c 1.16213,-2.012866 0.47756,-4.569304 -1.53531,-5.731433 -2.01286,-1.162129 -4.56878,-0.477043 -5.73091,1.535824 l -2.84944,4.935616 -2.84944,-4.935616 c -1.16213,-2.012867 -3.71857,-2.697953 -5.731432,-1.535824 -2.012866,1.162129 -2.697435,3.718567 -1.535306,5.731433 l 2.849438,4.935099 h -5.698877 c -2.324258,0 -4.195609,1.871352 -4.195609,4.19561 z"
           transform="rotate(90)" /></g><g
         id="g56938-2-3-0-75"
         transform="translate(55.130426,-26.610898)"
         style="fill:url(#linearGradient96472);fill-opacity:1"><path
           id="rect56814-6-7-6-6-92"
           style="fill:url(#linearGradient96470);fill-opacity:1;stroke-width:2.64222;stroke-linecap:round;stroke-linejoin:round;paint-order:markers stroke fill"
           d="m 91.232374,-72.391845 c 0,2.324257 1.871351,4.195092 4.195609,4.195092 h 5.698877 l -2.849438,4.935616 c -1.162129,2.012866 -0.47756,4.568787 1.535306,5.730916 2.012862,1.162129 4.569302,0.477043 5.731432,-1.535823 l 2.84944,-4.935099 2.84944,4.935099 c 1.16213,2.012866 3.71805,2.697952 5.73091,1.535823 2.01287,-1.162129 2.69744,-3.71805 1.53531,-5.730916 l -2.84944,-4.935616 h 5.69888 c 2.32426,0 4.19561,-1.870835 4.19561,-4.195092 0,-2.324258 -1.87135,-4.19561 -4.19561,-4.19561 h -5.69888 l 2.84944,-4.935099 c 1.16213,-2.012866 0.47756,-4.569304 -1.53531,-5.731433 -2.01286,-1.162129 -4.56878,-0.477043 -5.73091,1.535824 l -2.84944,4.935616 -2.84944,-4.935616 c -1.16213,-2.012867 -3.71857,-2.697953 -5.731432,-1.535824 -2.012866,1.162129 -2.697435,3.718567 -1.535306,5.731433 l 2.849438,4.935099 h -5.698877 c -2.324258,0 -4.195609,1.871352 -4.195609,4.19561 z"
           transform="rotate(90)" /></g></g></g></svg>
